<svg width="312" height="77" viewBox="0 0 312 77" fill="none" xmlns="http://www.w3.org/2000/svg">
<g clip-path="url(#clip0_306_113)">
<path d="M77.865 59.8923L68.4833 76.2499H18.7765L9.39478 59.8923H77.865Z" fill="#E9B17D"/>
<path d="M9.39487 59.8924L0 43.5423L24.853 0.25L43.6304 0.257459L9.39487 59.8924Z" fill="#E9B17D"/>
<path d="M77.8651 59.8924L87.2599 43.5423L62.4069 0.25L43.6304 0.257459L77.8651 59.8924Z" fill="#E9B17D"/>
<path d="M147.778 18.9919C145.527 17.9059 143.053 17.3666 140.556 17.4173H124.633V59.0903H129.783V43.0725H140.556C143.044 43.1261 145.508 42.5865 147.749 41.4979C149.758 40.5044 151.434 38.942 152.572 37.0028C153.694 34.9249 154.284 32.5992 154.289 30.235C154.294 27.8708 153.714 25.5425 152.602 23.4596C151.468 21.5242 149.789 19.9697 147.778 18.9919V18.9919ZM146.594 36.1078C144.78 37.6457 142.453 38.4331 140.084 38.3106H129.784V22.1767H140.143C142.499 22.0498 144.815 22.8263 146.624 24.3497C148.165 25.9154 149.028 28.0313 149.022 30.2347C149.017 32.4382 148.144 34.5498 146.595 36.1078H146.594Z" fill="#F3EEEA"/>
<path d="M161.641 17.4141H156.787V59.087H161.641V17.4141Z" fill="#F3EEEA"/>
<path d="M191.226 52.4191V39.3251C191.226 35.793 190.17 33.0842 188.06 31.1985C185.949 29.3129 182.96 28.3703 179.092 28.3708C175.46 28.3708 172.51 29.2043 170.242 30.8712C169.128 31.681 168.2 32.7219 167.521 33.9237C166.841 35.1254 166.427 36.4599 166.305 37.8367H171.16C171.31 37.0787 171.61 36.3587 172.042 35.7196C172.474 35.0804 173.03 34.535 173.675 34.1156C175.22 33.1311 177.027 32.6432 178.854 32.7168C180.838 32.5955 182.799 33.1864 184.389 34.3842C185.051 34.9534 185.574 35.6679 185.918 36.4725C186.262 37.2772 186.417 38.1505 186.372 39.0251V41.1093H177.49C173.544 41.1093 170.535 41.9229 168.463 43.55C166.392 45.1771 165.356 47.5188 165.356 50.5752C165.308 51.8236 165.56 53.0652 166.091 54.1948C166.622 55.3244 167.415 56.3086 168.405 57.0642C170.437 58.652 173.131 59.4457 176.485 59.4451C180.905 59.4451 184.279 57.7584 186.608 54.3849C186.58 55.0283 186.68 55.6708 186.904 56.2743C187.128 56.8778 187.47 57.4299 187.91 57.8979C188.739 58.6918 190.12 59.0885 192.053 59.0879H194.717V54.6227H193.234C191.896 54.6221 191.226 53.8876 191.226 52.4191ZM186.372 46.705C186.419 47.8653 186.216 49.0221 185.777 50.096C185.338 51.1699 184.672 52.1354 183.827 52.9263C182.129 54.4937 179.801 55.2771 176.841 55.2766C175.136 55.3688 173.449 54.8871 172.047 53.9075C171.48 53.4924 171.023 52.9449 170.713 52.3122C170.404 51.6796 170.252 50.9807 170.271 50.276C170.271 46.9058 172.521 45.2193 177.019 45.2166H186.372V46.705Z" fill="#F3EEEA"/>
<path d="M211.76 28.3684C207.42 28.3684 204.105 29.8565 201.815 32.8328L201.164 28.7256H196.962V59.0872H201.816V43.9064C201.816 40.4936 202.625 37.7947 204.243 35.8096C205.052 34.8256 206.078 34.0444 207.239 33.5277C208.4 33.0111 209.664 32.7732 210.932 32.8328C213.576 32.8328 215.598 33.6566 217 35.3041C218.401 36.9516 219.102 39.3428 219.102 42.4776V59.0872H223.956V42.1809C223.956 37.4185 222.841 33.9259 220.611 31.7033C218.381 29.4806 215.431 28.369 211.76 28.3684Z" fill="#F3EEEA"/>
<path d="M254.499 23.903C256.751 22.4906 259.363 21.7668 262.016 21.8196C264.883 21.7298 267.701 22.5874 270.037 24.2611C272.255 25.9312 273.816 28.3338 274.448 31.0467H279.597C278.982 27.0251 276.904 23.3764 273.766 20.8077C270.481 18.2442 266.408 16.9173 262.253 17.0569C258.606 16.9807 255.006 17.897 251.834 19.7088C248.849 21.4628 246.442 24.0609 244.913 27.1799C243.314 30.6554 242.487 34.4387 242.487 38.2679C242.487 42.0971 243.314 45.8805 244.913 49.356C246.448 52.4628 248.855 55.0498 251.834 56.798C255.006 58.6102 258.606 59.5265 262.253 59.45C266.867 59.45 270.705 58.1997 273.766 55.6991C276.873 53.1132 278.926 49.4691 279.535 45.4601H274.384C273.743 48.1693 272.197 50.5753 270.005 52.2764C267.678 53.9458 264.867 54.7938 262.011 54.6881C259.357 54.741 256.746 54.0168 254.494 52.6038C252.299 51.1879 250.561 49.1609 249.491 46.7695C248.339 44.0756 247.745 41.1739 247.745 38.2414C247.745 35.3089 248.339 32.4072 249.491 29.7133C250.568 27.3316 252.307 25.3138 254.499 23.903Z" fill="#F3EEEA"/>
<path d="M310.106 35.8096C308.89 33.5173 307.053 31.6185 304.808 30.3333C302.414 29.0432 299.74 28.3682 297.024 28.3682C294.308 28.3682 291.634 29.0432 289.24 30.3333C286.994 31.6178 285.157 33.5167 283.942 35.8096C282.696 38.3246 282.047 41.0961 282.047 43.9059C282.047 46.7158 282.696 49.4873 283.942 52.0022C285.156 54.2959 286.994 56.1956 289.24 57.4802C291.634 58.7696 294.308 59.4443 297.024 59.4443C299.74 59.4443 302.414 58.7696 304.808 57.4802C307.054 56.1948 308.891 54.2954 310.106 52.0022C311.352 49.4871 312 46.7157 312 43.9059C312 41.0962 311.352 38.3247 310.106 35.8096V35.8096ZM305.785 49.6818C305.014 51.3224 303.792 52.7063 302.262 53.6697C300.673 54.6053 298.865 55.0984 297.024 55.0984C295.183 55.0984 293.375 54.6053 291.786 53.6697C290.256 52.7068 289.033 51.3227 288.263 49.6818C287.443 47.8681 287.019 45.8989 287.019 43.9067C287.019 41.9146 287.443 39.9454 288.263 38.1317C289.033 36.4906 290.256 35.1062 291.786 34.143C293.375 33.2074 295.183 32.7142 297.024 32.7142C298.865 32.7142 300.673 33.2074 302.262 34.143C303.792 35.1067 305.014 36.4909 305.785 38.1317C306.604 39.9456 307.028 41.9146 307.028 43.9067C307.028 45.8989 306.604 47.8679 305.785 49.6818V49.6818Z" fill="#F3EEEA"/>
</g>
<defs>
<clipPath id="clip0_306_113">
<rect width="312" height="76" fill="white" transform="translate(0 0.25)"/>
</clipPath>
</defs>
</svg>
