<svg width="282" height="282" viewBox="0 0 282 282" fill="none" xmlns="http://www.w3.org/2000/svg">
<g clip-path="url(#clip0_477_5197)">
<ellipse cx="84.05" cy="274.893" rx="36.05" ry="36.2299" fill="#F4F4F6"/>
<ellipse cx="174.176" cy="238.663" rx="24.0334" ry="24.1533" fill="#F4F4F6"/>
<path fill-rule="evenodd" clip-rule="evenodd" d="M161.726 54.4938C138.736 67.8333 130.832 97.3305 144.072 120.378L192.011 203.825C194.743 208.58 191.31 214.51 185.827 214.51H174.295C160.955 214.51 150.142 225.324 150.142 238.663C150.142 252.002 160.955 262.816 174.295 262.816H221.773C224.326 262.816 226.685 264.181 227.957 266.396L240.325 287.924C253.565 310.971 282.936 318.841 305.926 305.502C328.916 292.162 336.819 262.665 323.579 239.618L227.326 72.0712C214.086 49.024 184.716 41.1543 161.726 54.4938Z" fill="#F4F4F6"/>
</g>
<defs>
<clipPath id="clip0_477_5197">
<rect width="282" height="282" fill="white"/>
</clipPath>
</defs>
</svg>
